<?xml version="1.0" encoding="UTF-8"?>
<svg version="1.1" xmlns="http://www.w3.org/2000/svg" width="512" height="512">
<path d="M0 0 C0.94728975 -0.00445784 1.89457951 -0.00891569 2.87057501 -0.01350862 C3.91335323 -0.01332426 4.95613144 -0.01313989 6.030509 -0.01294994 C7.13674285 -0.01662663 8.24297671 -0.02030332 9.38273281 -0.02409142 C13.10899303 -0.03515051 16.8352254 -0.0389759 20.5614996 -0.04278088 C23.2254875 -0.0490439 25.8894724 -0.05567764 28.55345821 -0.0626936 C36.56270397 -0.08245818 44.571951 -0.09252509 52.58121505 -0.10142139 C56.3540166 -0.10580508 60.12681675 -0.11117175 63.8996172 -0.11641026 C76.44385041 -0.13342401 88.98808276 -0.14791712 101.53232574 -0.155159 C104.7878186 -0.15706886 108.04331145 -0.1589892 111.29880428 -0.16094494 C112.10793189 -0.16142868 112.9170595 -0.16191242 113.75070613 -0.16241082 C126.85145265 -0.1707071 139.95210775 -0.19603654 153.05281437 -0.22852562 C166.50688711 -0.26161855 179.96091343 -0.27960985 193.41502708 -0.28280324 C200.96739872 -0.28496648 208.5196371 -0.2936876 216.07196903 -0.31926441 C222.50554832 -0.34100215 228.93896201 -0.34900687 235.37257386 -0.33929763 C238.65288823 -0.33476145 241.93279082 -0.33879358 245.21307278 -0.35605907 C248.77644711 -0.3737628 252.33896 -0.36667806 255.90233517 -0.35352612 C257.44307991 -0.36997998 257.44307991 -0.36997998 259.01495081 -0.38676625 C268.89997238 -0.29891701 276.56530732 2.6027567 283.73117733 9.42328358 C293.24740903 19.11656145 294.56871676 30.44637559 294.5445776 43.48386097 C294.54684316 44.3930116 294.54910871 45.30216223 294.55144292 46.23886287 C294.5577444 49.26796024 294.55695606 52.29701243 294.5561285 55.32611561 C294.55912228 57.5047254 294.56252532 59.68333467 294.56630611 61.86194324 C294.57512515 67.76664558 294.57748327 73.67133341 294.5781219 79.5760417 C294.57883326 83.26536713 294.58096914 86.95468889 294.58361912 90.6440134 C294.59286353 103.51493787 294.59695488 116.38585199 294.59616756 129.25677967 C294.59556607 141.25606844 294.60613431 153.25530037 294.62191123 165.25457776 C294.63497802 175.55963291 294.64035187 185.86467337 294.63971215 196.16973674 C294.63945704 202.32346321 294.64231612 208.47714975 294.65289021 214.63086796 C294.66255738 220.41420434 294.66265984 226.19746248 294.65537357 231.98080158 C294.65432622 234.10363981 294.65669953 236.22648287 294.66273403 238.34931278 C294.67043511 241.24581717 294.66582166 244.14205006 294.65810299 247.03854847 C294.66324655 247.87940498 294.66839012 248.7202615 294.67368954 249.58659852 C294.64041636 255.23241316 294.15353521 259.9268386 290.53586483 264.50922108 C288.41086483 266.13422108 288.41086483 266.13422108 284.41086483 266.13422108 C284.41086483 274.38422108 284.41086483 282.63422108 284.41086483 291.13422108 C286.39086483 291.46422108 288.37086483 291.79422108 290.41086483 292.13422108 C293.16832532 294.79659673 294.13946823 297.33466871 294.41086483 301.13422108 C293.4169248 305.56177213 292.04531779 308.35493352 288.41086483 311.13422108 C287.09086483 311.13422108 285.77086483 311.13422108 284.41086483 311.13422108 C284.41086483 319.38422108 284.41086483 327.63422108 284.41086483 336.13422108 C286.39086483 336.46422108 288.37086483 336.79422108 290.41086483 337.13422108 C294.32867359 341.05202983 294.52256905 345.16388339 294.55750179 350.52315235 C294.55704861 351.2301981 294.55659542 351.93724384 294.5561285 352.66571522 C294.56116642 353.79588566 294.56116642 353.79588566 294.56630611 354.94888783 C294.57580077 357.43906781 294.57775897 359.92918036 294.57883358 362.41937733 C294.58204895 364.15850826 294.58541323 365.89763892 294.58891964 367.63676929 C294.59490844 371.28590998 294.59675997 374.935027 294.59616756 378.58417225 C294.59606636 383.23519889 294.60967652 387.88607143 294.62693977 392.53706169 C294.63812443 396.13269703 294.64008474 399.728296 294.63955784 403.32394695 C294.64072985 405.0369612 294.64510734 406.74997663 294.65289021 408.46297359 C294.71303916 423.07854135 294.69025976 437.5170693 284.22336483 448.94672108 C277.74429976 454.97011564 269.75493684 458.27152457 260.99289608 458.23187733 C259.11247616 458.22704334 259.11247616 458.22704334 257.19406796 458.2221117 C255.22856991 458.20954334 255.22856991 458.20954334 253.22336483 458.19672108 C251.88808002 458.19170425 250.55279342 458.18714166 249.21750546 458.1830492 C245.9485801 458.17124803 242.67974492 458.15478405 239.41086483 458.13422108 C239.4318121 458.93005604 239.45275936 459.725891 239.47434139 460.54584217 C239.55820251 464.20016996 239.60974697 467.85429441 239.66086483 471.50922108 C239.69438046 472.76090076 239.72789608 474.01258045 239.76242733 475.30218983 C239.88865021 487.35647534 237.25826581 495.1579015 228.92648983 503.93109608 C223.3187388 508.84223207 216.3333784 512.25205211 208.82172966 512.26844215 C207.87443991 512.2729 206.92715015 512.27735784 205.95115465 512.28195077 C204.90837643 512.28176641 203.86559822 512.28158205 202.79122066 512.2813921 C201.13186988 512.28690713 201.13186988 512.28690713 199.43899685 512.29253358 C195.71273663 512.30359266 191.98650426 512.30741805 188.26023006 512.31122303 C185.59624216 512.31748605 182.93225726 512.32411979 180.26827145 512.33113575 C172.25902569 512.35090034 164.24977866 512.36096725 156.24051461 512.36986354 C152.46771306 512.37424724 148.69491291 512.37961391 144.92211246 512.38485241 C132.37787925 512.40186616 119.8336469 512.41635927 107.28940392 512.42360115 C104.03391106 512.42551102 100.77841821 512.42743135 97.52292538 512.42938709 C96.71379777 512.42987083 95.90467016 512.43035457 95.07102353 512.43085297 C81.97027701 512.43914925 68.86962191 512.4644787 55.76891529 512.49696777 C42.31484255 512.53006071 28.86081623 512.54805201 15.40670258 512.55124539 C7.85433094 512.55340863 0.30209256 512.56212976 -7.25023937 512.58770657 C-13.68381866 512.6094443 -20.11723235 512.61744902 -26.5508442 512.60773978 C-29.83115857 512.60320361 -33.11106116 512.60723573 -36.39134312 512.62450123 C-39.95471745 512.64220495 -43.51723034 512.63512021 -47.08060551 512.62196827 C-48.62135025 512.63842214 -48.62135025 512.63842214 -50.19322115 512.65520841 C-60.07824272 512.56735916 -67.74357766 509.66568545 -74.90944767 502.84515858 C-86.15676478 491.38858906 -85.73949907 477.55631807 -85.72284794 462.44702625 C-85.72471752 460.84000144 -85.72701881 459.23297708 -85.72971326 457.62595344 C-85.73581951 453.2205766 -85.73569905 448.81521878 -85.73451889 444.40983868 C-85.73431458 439.65441948 -85.73983647 434.89900634 -85.74457645 430.14358997 C-85.75287712 420.83077032 -85.75563103 411.51795699 -85.75618883 402.20513394 C-85.75666427 394.63391596 -85.7587204 387.06270006 -85.76188946 379.49148273 C-85.77069444 358.01789874 -85.77530908 336.54431974 -85.77455898 315.07073393 C-85.77451903 313.91348157 -85.77447907 312.7562292 -85.7744379 311.56390858 C-85.77439702 310.40524055 -85.77435614 309.24657253 -85.77431402 308.05279335 C-85.7739076 289.27614076 -85.78347671 270.49950823 -85.79757627 251.72286144 C-85.81194487 232.43549714 -85.81884619 213.14814263 -85.81798249 193.86077285 C-85.81765069 183.03546314 -85.82039043 172.21017446 -85.83116055 161.38486958 C-85.8402719 152.16787487 -85.84243556 142.95091072 -85.83565112 133.73391345 C-85.83238914 129.03373138 -85.83231763 124.33360791 -85.84100437 119.63343143 C-85.84888447 115.32530234 -85.84742254 111.01727818 -85.83872024 106.7091516 C-85.83718858 105.15602417 -85.83898875 103.60288886 -85.84458032 102.04977074 C-85.89299782 87.63943345 -85.63118791 75.02199638 -75.54616642 63.87640858 C-67.22777311 55.89664013 -59.1740065 53.66310986 -47.75710392 53.78265858 C-46.50542423 53.8161742 -45.25374454 53.84968983 -43.96413517 53.88422108 C-42.02860783 53.91129139 -42.02860783 53.91129139 -40.05397892 53.93890858 C-36.89823819 53.98566029 -33.74409416 54.05117903 -30.58913517 54.13422108 C-30.61008244 53.33838612 -30.6310297 52.54255116 -30.65261173 51.72259998 C-30.73647285 48.0682722 -30.78801731 44.41414775 -30.83913517 40.75922108 C-30.87265079 39.50754139 -30.90616642 38.2558617 -30.94069767 36.96625233 C-31.06692055 24.91196682 -28.43653615 17.11054066 -20.10476017 8.33734608 C-14.49700914 3.42621008 -7.51164874 0.01639005 0 0 Z " fill="#000000" transform="translate(151.5891351699829,-0.13422107696533203)"/>
<path d="M0 0 C93.72 0 187.44 0 284 0 C284.33 24.09 284.66 48.18 285 73 C287.75979875 78.70559118 287.75979875 78.70559118 295 81 C295 89.25 295 97.5 295 106 C296.98 106.33 298.96 106.66 301 107 C303.75746049 109.66237565 304.7286034 112.20044763 305 116 C304.00605997 120.42755106 302.63445296 123.22071244 299 126 C297.68 126 296.36 126 295 126 C295 133.92 295 141.84 295 150 C291.04 151.98 291.04 151.98 287 154 C284.49674269 157.75488597 284.71443049 160.7003913 284.72875977 165.0480957 C284.72353302 165.86794952 284.71830627 166.68780334 284.71292114 167.53250122 C284.70267741 169.31346534 284.69690009 171.09445943 284.69503975 172.87545204 C284.69137989 175.69609703 284.67466289 178.51638921 284.65428162 181.33695984 C284.59883846 189.35665318 284.56820696 197.37639907 284.54370117 205.39624023 C284.52780786 210.30164679 284.49756742 215.20680418 284.45893669 220.11208153 C284.44729937 221.97991473 284.44135645 223.84779255 284.44125557 225.715662 C284.44106307 228.3319453 284.42276327 230.94754397 284.40063477 233.5637207 C284.40521194 234.33224869 284.40978912 235.10077667 284.414505 235.89259338 C284.35040792 240.67016775 283.52892537 243.94235967 281 248 C276.99041444 251.70886664 273.98068541 253.12196044 268.5586586 253.13422108 C267.64435271 253.13867892 266.73004681 253.14313676 265.78803468 253.14772969 C264.78211959 253.14754533 263.7762045 253.14736097 262.73980713 253.14717102 C261.6722921 253.15084771 260.60477706 253.1545244 259.50491309 253.1583125 C255.90984611 253.16936983 252.31480802 253.17319665 248.71972656 253.17700195 C246.14939278 253.183265 243.5790599 253.18991166 241.00872803 253.19691467 C233.2827787 253.21667556 225.55682806 253.22674457 217.83085978 253.23564246 C214.19265636 253.24002576 210.5544544 253.24539244 206.91625214 253.25063133 C194.82237678 253.26764282 182.72850233 253.28213725 170.63461685 253.28938007 C167.49632008 253.29128997 164.35802331 253.2932103 161.21972656 253.29516602 C160.04971397 253.29589163 160.04971397 253.29589163 158.85606477 253.2966319 C146.21887991 253.30493319 133.58178968 253.33027211 120.94464615 253.36274669 C107.97084309 253.39581467 94.99708814 253.41382857 82.02324271 253.41702431 C74.73868425 253.4191896 67.4542638 253.42794091 60.1697464 253.45348549 C53.31777521 253.47745778 46.46605626 253.48101981 39.61405182 253.47072411 C37.09816665 253.47022741 34.58226946 253.47658688 32.06642151 253.49028015 C28.6333569 253.50792126 25.20119203 253.50093031 21.76812744 253.48774719 C20.77113524 253.49871644 19.77414303 253.50968568 18.74693894 253.52098733 C12.63557669 253.46427829 8.87292809 252.81190942 4 249 C-0.29203278 243.43191386 -0.5680499 238.85060309 -0.48101807 231.97096252 C-0.48444214 230.97914978 -0.48786621 229.98733704 -0.49139404 228.96546936 C-0.49800134 225.64017762 -0.47594426 222.3156963 -0.45410156 218.99047852 C-0.45287596 216.56664779 -0.45341063 214.14281564 -0.45556259 211.71898556 C-0.45646534 205.23018626 -0.43328818 198.74168223 -0.40512085 192.25295258 C-0.38233496 186.16337659 -0.38126805 180.0738723 -0.37841797 173.98425293 C-0.35743168 156.17696287 -0.30158703 138.3697277 -0.25 120.5625 C-0.1675 80.776875 -0.085 40.99125 0 0 Z " fill="#FDFDFD" transform="translate(141,185)"/>
<path d="M0 0 C1.07486742 -0.0055344 2.14973485 -0.01106879 3.25717402 -0.0167709 C6.85930652 -0.03038535 10.46074713 -0.01540311 14.06286621 -0.00050354 C16.64511917 -0.0042864 19.2273701 -0.00978617 21.80961609 -0.01687622 C28.09545302 -0.03080244 34.38108892 -0.02325718 40.66691625 -0.00820064 C47.98831594 0.00866821 55.30966567 0.00544809 62.63107878 0.00170528 C75.69513316 -0.00417217 88.75909114 0.00999371 101.82312012 0.03465271 C114.49731052 0.05857316 127.17137213 0.06565683 139.84558105 0.05516052 C153.64979894 0.04374885 167.45395725 0.04182433 181.25817442 0.05625862 C182.73039976 0.05778444 184.20262511 0.0593048 185.67485046 0.06081963 C186.39919727 0.06157744 187.12354407 0.06233525 187.86984077 0.06311603 C192.97218089 0.06785694 198.07449439 0.0660088 203.17683411 0.06175423 C210.0452559 0.05631049 216.91349612 0.06707857 223.78188515 0.08870888 C226.3046286 0.09427946 228.82738921 0.09473958 231.3501339 0.08975601 C234.78985533 0.08381253 238.22902911 0.09629119 241.66870117 0.11352539 C242.67045081 0.10751535 243.67220044 0.1015053 244.70430613 0.09531313 C249.99787627 0.14364548 253.77852617 0.49345371 258.33435059 3.50120544 C290.06565706 38.66292343 263.33435059 98.13853848 263.33435059 145.50120544 C169.61435059 145.50120544 75.89435059 145.50120544 -20.66564941 145.50120544 C-20.66564941 10.50120544 -20.66564941 10.50120544 -16.66564941 4.50120544 C-11.44627791 -0.23384269 -6.69374759 -0.0641812 0 0 Z " fill="#FE7C96" transform="translate(161.6656494140625,19.498794555664063)"/>
<path d="M0 0 C14.11098174 7.34465033 21.74117356 17.72334992 27.046875 32.67578125 C28.02616295 35.82653379 28.15273931 38.63009401 28.109375 41.92578125 C28.10035156 42.8178125 28.09132813 43.70984375 28.08203125 44.62890625 C28.07042969 45.304375 28.05882812 45.97984375 28.046875 46.67578125 C29.13742187 46.62357422 29.13742187 46.62357422 30.25 46.5703125 C47.97481898 46.09310584 64.80014362 52.68614583 77.671875 64.86328125 C90.68514408 78.35431021 95.64694465 94.75911754 95.546875 113.17578125 C95.54187988 114.39612061 95.53688477 115.61645996 95.53173828 116.8737793 C95.32578447 127.69487651 93.5630209 137.46450822 90.046875 147.67578125 C89.80630371 148.37509766 89.56573242 149.07441406 89.31787109 149.79492188 C81.52934122 171.75533742 67.6701138 193.26727258 46.421875 204.1171875 C35.22760774 209.28676231 23.85482137 210.45432409 12.046875 206.67578125 C8.36389663 206.41732663 5.70646108 206.44346847 2.21875 207.671875 C-8.72143464 211.13447038 -20.41726634 208.11252245 -30.390625 203.17578125 C-37.11509505 199.30440778 -42.49925689 194.11430796 -47.953125 188.67578125 C-48.67371094 187.97839844 -49.39429688 187.28101563 -50.13671875 186.5625 C-60.85289319 175.45821461 -67.11778439 161.10148182 -71.953125 146.67578125 C-72.26894531 145.84820312 -72.58476562 145.020625 -72.91015625 144.16796875 C-79.84760423 125.6453244 -79.47210871 100.59044311 -71.42578125 82.62109375 C-63.54265801 66.85484727 -51.77820328 55.44852363 -34.953125 49.67578125 C-33.963125 49.67578125 -32.973125 49.67578125 -31.953125 49.67578125 C-32.44232422 48.65871094 -32.44232422 48.65871094 -32.94140625 47.62109375 C-39.23665994 34.2135033 -42.67642496 21.82408489 -38.328125 7.05078125 C-36.42711473 2.02426654 -34.51388391 -0.51013346 -29.953125 -3.32421875 C-20.32511025 -6.533557 -9.01825805 -4.04390143 0 0 Z " fill="#FD7C96" transform="translate(273.953125,209.32421875)"/>
<path d="M0 0 C11.22 0 22.44 0 34 0 C34.00546844 3.55598465 34.00546844 3.55598465 34.01104736 7.18380737 C34.04728841 29.5198859 34.10549937 51.85583016 34.18390274 74.19180107 C34.2236838 85.67507023 34.25608108 97.15827096 34.27099609 108.64160156 C34.28401739 118.65241974 34.31099443 128.66308728 34.35461307 138.67382061 C34.37721694 143.97268421 34.39291131 149.27136208 34.39188385 154.57027817 C34.39113662 159.56244015 34.40911316 164.55419172 34.44116783 169.54624748 C34.44965464 171.37389312 34.45142507 173.20158486 34.44580269 175.02924156 C34.41108848 188.05307797 35.50422942 199.20946048 45 209 C53.06768944 215.60083682 61.08186555 218.45818044 71.39001465 218.39872742 C72.76009068 218.40869766 72.76009068 218.40869766 74.15784502 218.41886932 C77.20104825 218.43743737 80.24385617 218.43489818 83.28710938 218.43237305 C85.47545932 218.44139397 87.6638042 218.451722 89.85214233 218.46325684 C95.78124495 218.49081396 101.71025166 218.50010967 107.63941002 218.50611091 C113.84008961 218.51549785 120.04069766 218.54170155 126.24133301 218.56611633 C137.97790395 218.60977608 149.714461 218.63832633 161.45108843 218.66143972 C170.83102393 218.68026137 180.21091813 218.70631617 189.59082031 218.73754883 C190.25183154 218.73974765 190.91284277 218.74194648 191.59388465 218.74421193 C194.91018374 218.75528197 198.22648238 218.76648139 201.54278088 218.77772844 C229.02848154 218.87056726 256.51420479 218.94225155 284 219 C284.08756305 222.70818297 284.14058015 226.41609763 284.1875 230.125 C284.22520508 231.69507813 284.22520508 231.69507813 284.26367188 233.296875 C284.3172615 238.94164903 284.30228996 243.17598973 281 248 C276.98310608 251.71562688 273.97107784 253.12199586 268.54024792 253.13422108 C267.62184193 253.13867892 266.70343594 253.14313676 265.75719947 253.14772969 C264.74671131 253.14754533 263.73622315 253.14736097 262.69511414 253.14717102 C261.62280999 253.15084771 260.55050583 253.1545244 259.44570762 253.1583125 C255.83448715 253.16936995 252.22329543 253.17319665 248.61206055 253.17700195 C246.03025216 253.18326495 243.44844467 253.18991161 240.86663818 253.19691467 C233.10658188 253.21667491 225.34652429 253.22674409 217.58644912 253.23564246 C213.93267575 253.24002551 210.27890383 253.24539223 206.62513161 253.25063133 C194.48064188 253.2676421 182.33615306 253.28213701 170.19165325 253.28938007 C167.0402851 253.29128998 163.88891695 253.29321031 160.73754883 253.29516602 C159.95428751 253.29564976 159.17102619 253.2961335 158.36402968 253.2966319 C145.67120401 253.30493505 132.97847249 253.33027741 120.28568795 253.36274669 C107.25651912 253.39580502 94.22739817 253.41382766 81.19818717 253.41702431 C73.8818028 253.4191904 66.56555579 253.42795352 59.24921227 253.45348549 C52.36851733 253.47744171 45.48807358 253.4810259 38.60734558 253.47072411 C36.07975251 253.47022706 33.55214753 253.47659687 31.02459145 253.49028015 C27.57804032 253.507897 24.13238757 253.50094241 20.68583679 253.48774719 C19.6820408 253.49871644 18.6782448 253.50968568 17.64403075 253.52098733 C11.76937288 253.46656257 8.50135325 252.86262999 4 249 C0.91062184 245.48450071 -0.12545059 242.49599404 -0.12304783 237.85145283 C-0.12503888 237.00249795 -0.12702993 236.15354308 -0.12908131 235.2788623 C-0.12616847 234.34599133 -0.12325563 233.41312037 -0.12025452 232.45198059 C-0.12110894 231.46119765 -0.12196337 230.4704147 -0.12284368 229.44960803 C-0.12449676 226.11458058 -0.11897989 222.77960293 -0.11352539 219.44458008 C-0.11324346 217.05993145 -0.11340138 214.67528273 -0.1139679 212.29063416 C-0.11422572 206.47770583 -0.10988098 200.66479394 -0.10353024 194.85186938 C-0.09638814 188.08891363 -0.09488563 181.32596023 -0.09374207 174.56300124 C-0.09155264 162.50203967 -0.08489552 150.44108485 -0.07543945 138.38012695 C-0.06626251 126.6630049 -0.05918305 114.94588468 -0.05493164 103.22875977 C-0.05466892 102.50669501 -0.05440619 101.78463025 -0.05413551 101.04068474 C-0.05283049 97.41835141 -0.05156677 93.79601807 -0.05032361 90.17368472 C-0.0399544 60.11578494 -0.02206413 30.05789361 0 0 Z " fill="#DFE8ED" transform="translate(87,239)"/>
<path d="M0 0 C14.11098174 7.34465033 21.74117356 17.72334992 27.046875 32.67578125 C28.02616295 35.82653379 28.15273931 38.63009401 28.109375 41.92578125 C28.10035156 42.8178125 28.09132813 43.70984375 28.08203125 44.62890625 C28.07042969 45.304375 28.05882812 45.97984375 28.046875 46.67578125 C29.13742187 46.62357422 29.13742187 46.62357422 30.25 46.5703125 C47.97481898 46.09310584 64.80014362 52.68614583 77.671875 64.86328125 C90.68514408 78.35431021 95.64694465 94.75911754 95.546875 113.17578125 C95.54187988 114.39612061 95.53688477 115.61645996 95.53173828 116.8737793 C95.32578447 127.69487651 93.5630209 137.46450822 90.046875 147.67578125 C89.80630371 148.37509766 89.56573242 149.07441406 89.31787109 149.79492188 C81.52934122 171.75533742 67.6701138 193.26727258 46.421875 204.1171875 C35.22760774 209.28676231 23.85482137 210.45432409 12.046875 206.67578125 C8.36389663 206.41732663 5.70646108 206.44346847 2.21875 207.671875 C-8.72143464 211.13447038 -20.41726634 208.11252245 -30.390625 203.17578125 C-37.11509505 199.30440778 -42.49925689 194.11430796 -47.953125 188.67578125 C-48.67371094 187.97839844 -49.39429688 187.28101563 -50.13671875 186.5625 C-60.85289319 175.45821461 -67.11778439 161.10148182 -71.953125 146.67578125 C-72.26894531 145.84820312 -72.58476562 145.020625 -72.91015625 144.16796875 C-79.84760423 125.6453244 -79.47210871 100.59044311 -71.42578125 82.62109375 C-63.54265801 66.85484727 -51.77820328 55.44852363 -34.953125 49.67578125 C-33.963125 49.67578125 -32.973125 49.67578125 -31.953125 49.67578125 C-32.44232422 48.65871094 -32.44232422 48.65871094 -32.94140625 47.62109375 C-39.23665994 34.2135033 -42.67642496 21.82408489 -38.328125 7.05078125 C-36.42711473 2.02426654 -34.51388391 -0.51013346 -29.953125 -3.32421875 C-20.32511025 -6.533557 -9.01825805 -4.04390143 0 0 Z M-46.96484375 80.8828125 C-57.24959955 93.53931492 -58.26981392 108.93024208 -56.953125 124.67578125 C-53.85261409 146.05845239 -43.5783565 168.70205301 -25.98046875 181.90625 C-20.23683914 185.65545641 -14.97353366 188.9696588 -7.953125 188.92578125 C-7.128125 188.9309375 -6.303125 188.93609375 -5.453125 188.94140625 C-2.90768396 188.7904114 -2.90768396 188.7904114 -0.54296875 187.67578125 C2.60027947 186.46209868 5.12229256 186.40994105 8.484375 186.42578125 C10.12212891 186.41804688 10.12212891 186.41804688 11.79296875 186.41015625 C15.18043 186.6866837 17.85652141 187.54288018 21.046875 188.67578125 C29.99561037 190.40730025 37.74789012 186.54682037 45.046875 181.67578125 C60.71313022 169.37438419 71.68819243 147.43378821 74.59765625 127.99609375 C76.50928388 111.6879984 76.32926429 95.40728799 65.9453125 81.890625 C59.156435 73.97026791 51.26665614 68.54762693 40.6484375 67.42138672 C38.02686071 67.26251837 35.42312213 67.19302723 32.796875 67.17578125 C31.96961914 67.1694165 31.14236328 67.16305176 30.29003906 67.15649414 C25.12031498 67.26329383 20.90076208 68.22673466 16.05615234 69.99902344 C13.48798968 70.86402306 11.1876008 71.07554362 8.484375 71.05078125 C7.21400391 71.06238281 7.21400391 71.06238281 5.91796875 71.07421875 C3.046875 70.67578125 3.046875 70.67578125 -0.64453125 69.1796875 C-5.52332113 67.25186672 -10.13024652 67.17885286 -15.328125 67.23828125 C-16.25915039 67.24657959 -17.19017578 67.25487793 -18.14941406 67.26342773 C-30.20835646 67.5609833 -38.80792081 71.9339553 -46.96484375 80.8828125 Z " fill="#030202" transform="translate(273.953125,209.32421875)"/>
<path d="M0 0 C3.1731873 1.04388965 4.4399833 2.8689884 6.08984375 5.6875 C7.51371334 8.53523919 7.24079732 10.96947567 7.2668457 14.15332031 C7.2734169 14.81697098 7.2799881 15.48062164 7.28675842 16.16438293 C7.30649807 18.36479809 7.31815675 20.5651449 7.328125 22.765625 C7.33220053 23.51754875 7.33627605 24.2694725 7.34047508 25.04418182 C7.36134085 29.02570827 7.3756391 33.00720022 7.38500977 36.98876953 C7.39606222 41.09572068 7.43044656 45.20212822 7.47018147 49.30888748 C7.49636765 52.47112005 7.50470345 55.63322366 7.50829124 58.79555511 C7.5131538 60.3089845 7.52475848 61.82240825 7.54332924 63.33573151 C7.56776016 65.45895492 7.5667493 67.58077971 7.55981445 69.70410156 C7.56568069 70.91052307 7.57154694 72.11694458 7.57759094 73.35992432 C6.99026223 77.36687871 5.57684273 79.53145219 3.08984375 82.6875 C-0.10895054 85.03328248 -3.01668514 85.16425156 -6.91015625 84.6875 C-9.78515625 82.8125 -9.78515625 82.8125 -11.91015625 80.6875 C-11.91015625 80.0275 -11.91015625 79.3675 -11.91015625 78.6875 C-12.64621094 79.03683594 -13.38226563 79.38617188 -14.140625 79.74609375 C-15.11644531 80.20113281 -16.09226562 80.65617187 -17.09765625 81.125 C-18.06058594 81.57746094 -19.02351563 82.02992188 -20.015625 82.49609375 C-29.39035761 86.35478936 -40.08594033 85.79538627 -49.34765625 81.9453125 C-60.65519395 76.39496625 -68.25899723 68.46915487 -72.91015625 56.6875 C-75.35501294 47.56211134 -75.39680041 35.46703116 -71.23046875 26.88671875 C-64.38115087 15.4779437 -54.94018067 7.21548495 -41.91015625 3.6875 C-33.42816649 2.70122212 -25.84737321 3.61164088 -17.91015625 6.6875 C-16.87890625 7.079375 -15.84765625 7.47125 -14.78515625 7.875 C-13.85703125 8.2771875 -13.85703125 8.2771875 -12.91015625 8.6875 C-12.81734375 7.57375 -12.81734375 7.57375 -12.72265625 6.4375 C-11.91015625 3.6875 -11.91015625 3.6875 -9.91015625 1.3125 C-6.23023655 -0.68078984 -4.0627908 -0.64896492 0 0 Z " fill="#040202" transform="translate(363.91015625,54.3125)"/>
<path d="M0 0 C0 47.85 0 95.7 0 145 C-11.22 145 -22.44 145 -34 145 C-34.09032226 127.50179983 -34.16399464 110.00379884 -34.20724869 92.50543022 C-34.22786682 84.38048833 -34.25597297 76.25570164 -34.30175781 68.13085938 C-34.34164867 61.04856516 -34.36743826 53.96638336 -34.37635398 46.88397992 C-34.38156498 43.13445501 -34.39379668 39.38525168 -34.42292023 35.63582993 C-34.45518227 31.44831883 -34.45595798 27.26136547 -34.45410156 23.07373047 C-34.46848267 21.83295242 -34.48286377 20.59217438 -34.49768066 19.313797 C-34.44623838 8.60970388 -34.44623838 8.60970388 -30 4 C-24 0 -24 0 0 0 Z " fill="#FECC68" transform="translate(121,74)"/>
<path d="M0 0 C6.1598044 3.87302734 7.97082076 8.64890524 10.4375 15.3125 C10.84581055 16.37267334 11.25412109 17.43284668 11.67480469 18.52514648 C12.86155472 21.62356964 14.02984737 24.72789906 15.19036865 27.83618164 C16.06331062 30.16920379 16.94239392 32.4998453 17.82275391 34.83007812 C21.36419907 44.20446538 24.89693994 53.5821382 28.37818909 62.9790802 C29.81523975 66.85360757 31.27339607 70.71671846 32.78710938 74.56201172 C33.06814514 75.28444565 33.34918091 76.00687958 33.63873291 76.75120544 C34.16277076 78.09518403 34.69452096 79.43619417 35.23577881 80.77333069 C36.74013942 84.6568018 37.42809349 87.84300622 37 92 C34.98934744 95.33014331 33.73731173 97.36952397 30.0625 98.703125 C24.89060969 99.60428771 23.96725462 98.98035277 19 96 C17.02 91.38 15.04 86.76 13 82 C-4.325 81.505 -4.325 81.505 -22 81 C-22.99 84.3 -23.98 87.6 -25 91 C-28.73400251 97.74529486 -28.73400251 97.74529486 -33 99 C-36.92032447 99.50046695 -38.48702261 99.34198493 -41.8125 97.125 C-44.8514741 94.17285373 -44.96509759 93.43535738 -45.31396484 89.08374023 C-45.23475675 83.11794422 -43.18003423 78.13714275 -40.9765625 72.66015625 C-40.55635834 71.58035995 -40.13615417 70.50056366 -39.70321655 69.38804626 C-38.35795816 65.94045545 -36.99207848 62.50148874 -35.625 59.0625 C-34.74468465 56.81891175 -33.86576688 54.57477461 -32.98828125 52.33007812 C-31.67126088 48.96240849 -30.35100381 45.59624639 -29.01885986 42.23452759 C-26.71062594 36.40688177 -24.45408018 30.56626419 -22.28027344 24.68701172 C-21.83831635 23.5022374 -21.39635925 22.31746307 -20.94100952 21.0967865 C-20.10095609 18.83790455 -19.2715803 16.57501272 -18.45474243 14.30763245 C-15.19831373 5.59572637 -10.84659973 -2.50593856 0 0 Z " fill="#030102" transform="translate(241,40)"/>
<path d="M0 0 C5.00275883 2.85005655 8.4969557 7.03314636 10.6875 12.375 C11.58938393 19.71591567 11.23422192 26.34534724 6.6875 32.375 C2.16457311 37.22010798 -2.45580001 39.41557878 -9 39.875 C-15.16525548 39.7459812 -19.58000729 37.18175831 -24.3125 33.375 C-29.16327411 28.15305848 -29.78696944 22.13794878 -29.72265625 15.265625 C-28.9393587 9.7452423 -25.84583074 5.56812325 -21.68359375 1.96484375 C-15.23498167 -2.54433613 -7.17203017 -3.28604424 0 0 Z " fill="#FB7B94" transform="translate(339.3125,79.625)"/>
<path d="M0 0 C8.61623165 0.73329631 15.55594698 3.66753921 21.49609375 10.0625 C25.86372807 15.68937434 28.1461609 21.57632387 28.0625 28.6875 C28.05347656 29.68136719 28.04445313 30.67523438 28.03515625 31.69921875 C28.02355469 32.45847656 28.01195312 33.21773438 28 34 C21.32025942 34.72605876 16.56080993 32.67442585 11 29 C4.61315136 23.52382369 0.41571972 16.37709602 -0.23828125 7.91796875 C-0.2485008 5.26429235 -0.18115574 2.64688669 0 0 Z " fill="#85D88A" transform="translate(254,225)"/>
<path d="M0 0 C2.76538424 2.67320476 3.72721524 5.18101333 4 9 C3.0128925 13.39711523 1.77209239 16.41909468 -2 19 C-8.40472674 19.9297184 -8.40472674 19.9297184 -11.81640625 17.94140625 C-15.40434248 15.02782912 -16.85759632 13.25789914 -17.375 8.6875 C-17 5 -17 5 -14.8125 2.1875 C-9.39919082 -2.02285158 -6.5243704 -2.65807683 0 0 Z " fill="#040404" transform="translate(442,292)"/>
<path d="M0 0 C2.52707992 2.23996234 3.67189904 4.18348394 4.82421875 7.34375 C5.28344727 8.59478516 5.28344727 8.59478516 5.75195312 9.87109375 C6.06068359 10.73863281 6.36941406 11.60617188 6.6875 12.5 C7.16799805 13.80130859 7.16799805 13.80130859 7.65820312 15.12890625 C10 21.59006863 10 21.59006863 10 25 C3.73 25 -2.54 25 -9 25 C-6.61584032 16.39053449 -3.39757674 8.24654549 0 0 Z " fill="#F67891" transform="translate(236,76)"/>
</svg>
